#!OML:ASF F:\VICON\USERDATA\INSTALL\rory3\rory3.ASF
:FULLY-SPECIFIED
:DEGREES
2273
root 0.17849 18.7717 6.37247 -5.87598 -11.3286 -4.35695
lowerback 3.40287 1.71033 -5.67511
upperback 1.27221 2.05573 -3.04994
thorax -0.684914 1.01744 -0.0416846
lowerneck -17.4863 -5.87633 -4.58871
upperneck 16.8966 -10.0896 14.6294
head 9.26156 -3.57061 4.41427
rclavicle -3.62285e-014 -1.11319e-014
rhumerus 4.53067 -38.57 -59.8547
rradius 89.3483
rwrist 15.5352
rhand -30.4786 -2.39261
rfingers 7.12502
rthumb -3.77964 -32.3388
lclavicle -3.62285e-014 -1.11319e-014
lhumerus 16.2289 -52.2195 74.3927
lradius 125.387
lwrist 30.6416
lhand -18.035 34.3942
lfingers 7.12502
lthumb 8.23656 64.2136
rfemur -13.7172 8.57867 8.23756
rtibia 52.9007
rfoot 26.9187 9.23965
rtoes 20.6119
lfemur -2.74204 -9.9708 -19.4407
ltibia 26.085
lfoot -18.4329 23.3814
ltoes 1.86677
2274
root 0.169466 18.7717 6.37115 -5.84536 -10.9739 -4.32126
lowerback 3.25829 1.61937 -5.6439
upperback 1.07799 1.93842 -2.95447
thorax -0.801747 0.964299 0.0451122
lowerneck -16.9147 -5.8013 -5.10434
upperneck 16.763 -9.87788 14.8226
head 9.12271 -3.51801 4.60703
rclavicle -3.57812e-015 -2.06736e-014
rhumerus 6.14324 -39.1094 -60.5811
rradius 88.2951
rwrist 15.351
rhand -33.5253 -2.77233
rfingers 7.12502
rthumb -6.72129 -32.6457
lclavicle -3.57812e-015 -2.06736e-014
lhumerus 14.5457 -52.1082 75.8157
lradius 125.06
lwrist 31.0599
lhand -18.6967 33.7345
lfingers 7.12502
lthumb 7.59789 63.578
rfemur -13.2335 8.54225 8.18942
rtibia 52.6236
rfoot 25.6178 9.61912
rtoes 19.8556
lfemur -2.88157 -9.78926 -19.4016
ltibia 26.1755
lfoot -18.1745 23.0005
ltoes 1.39425
2275
root 0.159766 18.7746 6.36949 -5.83299 -10.7391 -4.36858
lowerback 3.15566 0.892293 -5.66877
upperback -0.201704 0.926907 -2.06646
thorax -2.03593 0.509269 1.00308
lowerneck -12.1612 -4.86993 -8.44148
upperneck 16.0629 -8.06086 15.7828
head 7.97017 -3.02854 5.81211
rclavicle -6.99722e-014 3.81667e-014
rhumerus 6.81012 -36.2062 -60.2588
rradius 87.0237
rwrist 14.7896
rhand -36.5478 -3.34123
rfingers 7.12502
rthumb -9.63839 -33.1007
lclavicle -6.99722e-014 3.81667e-014
lhumerus 7.98076 -50.1919 81.4028
lradius 124.871
lwrist 30.3965
lhand -18.3988 33.2684
lfingers 7.12502
lthumb 7.88541 63.1014
rfemur -12.7732 8.62055 8.2667
rtibia 52.3797
rfoot 24.2955 10.0854
rtoes 18.7064
lfemur -2.95008 -9.58053 -19.2774
ltibia 26.2347
lfoot -17.8924 22.716
ltoes 0.786173
2276
root 0.145793 18.7735 6.3664 -5.8388 -10.6337 -4.40616
lowerback 3.12335 0.70688 -5.73727
upperback -0.60347 0.66762 -1.7697
thorax -2.42192 0.39873 1.35667
lowerneck -10.964 -4.55994 -9.2185
upperneck 15.8133 -7.54094 15.9505
head 7.63035 -2.87539 6.07558
rclavicle -7.15625e-015 -3.65764e-014
rhumerus 8.58062 -35.7777 -61.2155
rradius 85.4296
rwrist 14.3735
rhand -39.8996 -3.72509
rfingers 7.12502
rthumb -12.871 -33.3082
lclavicle -7.15625e-015 -3.65764e-014
lhumerus 5.78336 -49.3523 83.1432
lradius 124.622
lwrist 30.0834
lhand -18.2224 33.0897
lfingers 7.12502
lthumb 8.0557 62.9162
rfemur -12.3769 8.75339 8.32728
rtibia 52.1762
rfoot 23.1749 10.4041
rtoes 18.0214
lfemur -2.9769 -9.54156 -19.1826
ltibia 26.2754
lfoot -17.853 22.6257
ltoes 0.760278
2277
root 0.130031 18.7741 6.36181 -5.83338 -10.5296 -4.36869
lowerback 3.05438 0.701033 -5.77288
upperback -0.679807 0.660976 -1.73523
thorax -2.46251 0.39849 1.41246
lowerneck -11.1953 -4.55565 -9.27026
upperneck 15.9539 -7.52749 15.9428
head 7.71821 -2.85853 6.08515
rclavicle 1.86858e-014 9.54166e-015
rhumerus 10.9831 -36.129 -62.8479
rradius 83.4509
rwrist 14.4423
rhand -43.9433 -4.66749
rfingers 7.12502
rthumb -16.7667 -33.9635
lclavicle 1.86858e-014 9.54166e-015
lhumerus 4.95867 -49.1528 83.7828
lradius 124.368
lwrist 30.104
lhand -18.459 33.004
lfingers 7.12502
lthumb 7.82732 62.8391
rfemur -11.9942 8.93921 8.31019
rtibia 51.9914
rfoot 22.362 10.3076
rtoes 17.6835
lfemur -3.04275 -9.63973 -19.1801
ltibia 26.3265
lfoot -17.8558 22.664
ltoes 0.62482
2278
root 0.115136 18.7748 6.35394 -5.8062 -10.4457 -4.41418
lowerback 2.90955 0.747077 -5.58378
upperback -0.589201 0.742896 -1.82151
thorax -2.28882 0.430503 1.21663
lowerneck -11.8559 -4.6106 -9.06105
upperneck 16.182 -7.64021 15.9683
head 7.92477 -2.86139 6.04404
rclavicle -3.10104e-014 3.18055e-014
rhumerus 13.5023 -36.6899 -64.7903
rradius 81.4053
rwrist 14.761
rhand -47.5879 -6.10068
rfingers 7.12502
rthumb -20.2723 -35.0627
lclavicle -3.10104e-014 3.18055e-014
lhumerus 4.79233 -49.1489 83.8468
lradius 124.097
lwrist 30.1563
lhand -18.5693 33.0332
lfingers 7.12502
lthumb 7.72083 62.8722
rfemur -11.6404 9.28146 8.42834
rtibia 51.818
rfoot 21.5414 10.0103
rtoes 15.7414
lfemur -3.15468 -9.62794 -19.0499
ltibia 26.3988
lfoot -17.8379 22.5613
ltoes 0.662171
2279
root 0.101311 18.7756 6.34346 -5.78561 -10.4876 -4.55067
lowerback 2.85307 0.792041 -5.378
upperback -0.598968 0.815393 -1.7742
thorax -2.26901 0.464043 1.14769
lowerneck -12.1761 -4.61583 -8.94571
upperneck 16.3266 -7.65258 15.8796
head 8.02509 -2.84896 5.99211
rclavicle -3.97569e-016 -4.77083e-015
rhumerus 15.8857 -36.8865 -66.5294
rradius 79.241
rwrist 14.607
rhand -50.4138 -6.82378
rfingers 7.12502
rthumb -22.9862 -35.4733
lclavicle -3.97569e-016 -4.77083e-015
lhumerus 4.49856 -48.9548 84.0644
lradius 123.922
lwrist 30.1881
lhand -18.6707 33.4388
lfingers 7.12502
lthumb 7.62302 63.2814
rfemur -11.3276 9.77671 8.6811
rtibia 51.6544
rfoot 20.6664 9.73488
rtoes 12.7376
lfemur -3.22816 -9.47914 -18.802
ltibia 26.4674
lfoot -17.8704 22.4124
ltoes 0.930695
2280
root 0.0882545 18.7764 6.33718 -5.79413 -10.6187 -4.70669
lowerback 2.63587 0.820068 -4.98183
upperback -0.547859 0.884158 -1.79347
thorax -2.09109 0.488872 0.907468
lowerneck -12.3466 -4.60132 -8.86281
upperneck 16.3592 -7.64236 15.8749
head 8.06289 -2.83069 5.97654
rclavicle -4.37326e-015 -1.90833e-014
rhumerus 18.5291 -36.9056 -68.5922
rradius 76.8373
rwrist 14.177
rhand -52.6736 -7.3576
rfingers 7.12502
rthumb -25.1531 -35.7204
lclavicle -4.37326e-015 -1.90833e-014
lhumerus 4.34571 -48.8205 83.9994
lradius 123.851
lwrist 30.3287
lhand -19.4449 33.9113
lfingers 7.12502
lthumb 6.87564 63.7797
rfemur -10.9865 10.2677 8.94085
rtibia 51.5174
rfoot 19.7524 9.50864
rtoes 9.93389
lfemur -3.23071 -9.28208 -18.5514
ltibia 26.5328
lfoot -17.8672 22.3238
ltoes 0.928661
2281
root 0.0726217 18.7727 6.33139 -5.86814 -10.7659 -4.66071
lowerback 2.64303 0.867933 -4.87796
upperback -0.664573 0.945695 -1.80232
thorax -2.21675 0.522188 0.836144
lowerneck -12.3614 -4.56212 -8.82576
upperneck 16.5376 -7.60286 15.8007
head 8.11364 -2.81046 5.95374
rclavicle 3.18055e-015 3.97569e-014
rhumerus 20.8948 -36.6719 -70.4869
rradius 74.3457
rwrist 13.7754
rhand -53.8829 -8.22407
rfingers 7.12502
rthumb -26.3112 -36.4192
lclavicle 3.18055e-015 3.97569e-014
lhumerus 3.72472 -48.8352 84.4873
lradius 123.751
lwrist 29.9627
lhand -20.5871 34.2654
lfingers 7.12502
lthumb 5.77302 64.1668
rfemur -10.6282 10.7219 8.9611
rtibia 51.4519
rfoot 18.897 9.39195
rtoes 8.54806
lfemur -3.15432 -9.23849 -18.5523
ltibia 26.5528
lfoot -17.9144 22.377
ltoes 0.813159
2282
root 0.0543972 18.7678 6.32012 -5.96799 -10.943 -4.51424
lowerback 2.44259 0.941587 -4.81573
upperback -0.633731 1.05819 -1.90807
thorax -2.07473 0.573569 0.691281
lowerneck -12.3636 -4.51385 -8.68598
upperneck 16.5639 -7.57105 15.8195
head 8.11408 -2.78396 5.94055
rclavicle -2.0276e-014 0
rhumerus 23.2079 -36.4671 -72.6045
rradius 71.9841
rwrist 13.6415
rhand -54.6063 -9.20432
rfingers 7.12502
rthumb -27.0036 -37.2942
lclavicle -2.0276e-014 0
lhumerus 3.60174 -48.8817 84.593
lradius 123.596
lwrist 29.5326
lhand -21.2621 34.587
lfingers 7.12502
lthumb 5.12123 64.5051
rfemur -10.3324 11.2117 8.89414
rtibia 51.4616
rfoot 18.1245 9.53875
rtoes 7.38888
lfemur -3.03932 -9.26568 -18.6693
ltibia 26.4974
lfoot -17.8799 22.5819
ltoes 0.699749
